<?xml version="1.0" standalone="no"?>
<!DOCTYPE svg PUBLIC "-//W3C//DTD SVG 20010904//EN"
 "http://www.w3.org/TR/2001/REC-SVG-20010904/DTD/svg10.dtd">
<svg version="1.0" xmlns="http://www.w3.org/2000/svg"
 width="2432.000000pt" height="2432.000000pt" viewBox="0 0 2432.000000 2432.000000"
 preserveAspectRatio="xMidYMid meet">
<metadata>
Created by potrace 1.14, written by Peter Selinger 2001-2017
</metadata>
<g transform="translate(0.000000,2432.000000) scale(0.100000,-0.100000)"
fill="#000000" stroke="none">
<path d="M19415 24294 c-2926 -312 -5001 -651 -7170 -1175 -684 -165 -2470
-651 -3400 -925 -1976 -583 -3345 -1137 -4490 -1816 -456 -271 -944 -613
-1065 -745 -68 -76 -150 -228 -175 -328 -103 -403 79 -833 420 -990 136 -63
168 -68 520 -72 329 -5 724 7 1110 33 234 15 711 57 835 74 135 17 2770 -26
3645 -60 2604 -102 4452 -401 6332 -1026 1253 -416 2305 -902 3158 -1458 l140
-91 -80 -7 c-387 -36 -594 -58 -1150 -124 -882 -103 -1366 -170 -1985 -275
-1199 -202 -2431 -479 -3525 -794 -3798 -1092 -5996 -2782 -6344 -4880 -47
-282 -57 -591 -26 -800 116 -790 648 -1275 1683 -1534 515 -129 1015 -187
2277 -261 666 -39 911 -45 1310 -31 1123 40 2188 143 5130 496 1459 175 2187
259 2835 325 349 36 430 52 555 114 217 108 333 285 323 496 -4 77 -9 98 -41
164 -61 122 -174 207 -337 253 -103 28 -337 24 -570 -10 -597 -89 -989 -168
-1860 -373 -1056 -250 -1558 -344 -2200 -413 -525 -57 -771 -68 -1748 -83
-666 -9 -876 -9 -1005 0 -233 18 -1400 149 -1477 167 -36 8 -119 19 -185 25
-207 19 -375 58 -755 172 l-205 62 -125 84 c-219 148 -356 266 -394 340 -28
54 -21 84 42 169 125 167 322 314 627 464 249 123 469 208 900 349 204 67 640
211 970 320 1073 356 1790 562 2725 784 1847 439 3615 700 5730 846 157 10
321 26 365 34 44 8 132 17 196 20 594 30 1225 358 1657 861 287 335 474 738
537 1158 116 783 -97 1565 -628 2306 -633 882 -1759 1717 -3092 2291 -1292
556 -2714 949 -4350 1199 -143 22 -289 44 -325 49 -36 5 -58 11 -50 15 8 3
152 24 320 46 2205 293 3403 435 5026 596 139 14 300 34 359 46 705 136 1201
544 1405 1156 237 713 32 1568 -513 2139 -336 353 -762 564 -1257 624 -116 14
-447 10 -605 -6z"/>
<path d="M10370 16949 c-201 -4 -417 -9 -480 -13 -711 -42 -1089 -78 -1570
-147 -2125 -305 -3822 -1006 -5090 -2102 -380 -328 -551 -522 -843 -953 -658
-972 -1069 -2039 -1182 -3069 -22 -201 -31 -698 -16 -891 50 -642 206 -1221
485 -1799 150 -310 393 -705 576 -934 383 -481 1010 -1067 1615 -1511 1070
-785 2287 -1314 3495 -1519 517 -89 896 -117 1435 -108 396 7 373 5 1050 86
2678 322 4985 524 5645 497 171 -8 497 -46 631 -76 255 -55 445 -157 528 -281
118 -177 58 -385 -199 -683 -156 -181 -330 -330 -575 -492 -1332 -879 -3404
-1111 -5880 -659 -1137 207 -2300 536 -3647 1029 -54 20 -98 34 -98 31 0 -9
377 -327 605 -510 1635 -1311 3323 -2252 4715 -2629 497 -134 885 -194 1327
-203 362 -8 565 11 968 88 1140 217 2388 637 3225 1084 660 353 1093 679 1686
1270 716 714 995 1230 1030 1906 23 454 -141 943 -441 1314 -440 543 -1309
923 -2390 1044 -303 34 -495 44 -860 44 -552 0 -1114 -46 -1705 -138 -176 -27
-334 -44 -740 -79 -1681 -147 -3308 -180 -4390 -90 -325 27 -610 63 -850 109
-69 13 -168 29 -220 35 -385 47 -895 180 -1270 329 -436 175 -838 429 -1115
706 -350 350 -556 759 -631 1250 -25 162 -25 545 0 725 60 443 216 944 437
1409 204 430 574 931 1034 1400 1368 1395 3483 2484 6112 3145 937 236 1873
411 2913 546 263 34 721 86 850 96 103 9 100 10 -135 68 -597 148 -1482 318
-2190 420 -1365 198 -2557 277 -3845 255z"/>
</g>
</svg>
